<?xml version="1.0" encoding="UTF-8" standalone="no"?><svg xmlns="http://www.w3.org/2000/svg" xmlns:xlink="http://www.w3.org/1999/xlink" contentStyleType="text/css" height="533px" preserveAspectRatio="none" style="width:972px;height:533px;background:#FFFFFF;" version="1.1" viewBox="0 0 972 533" width="972px" zoomAndPan="magnify"><defs/><g><!--MD5=[4cf85a21d15e4a4db4cfeb7a49473800]
cluster OriginalObject--><g id="cluster_OriginalObject"><path d="M8.5,6 L120.5,6 A3.75,3.75 0 0 1 123,8.5 L130,28.2969 L721.5,28.2969 A2.5,2.5 0 0 1 724,30.7969 L724,202.5 A2.5,2.5 0 0 1 721.5,205 L8.5,205 A2.5,2.5 0 0 1 6,202.5 L6,8.5 A2.5,2.5 0 0 1 8.5,6 " style="stroke:#000000;stroke-width:1.5;fill:none;"/><line style="stroke:#000000;stroke-width:1.5;fill:none;" x1="6" x2="130" y1="28.2969" y2="28.2969"/><text fill="#000000" font-family="sans-serif" font-size="14" font-weight="bold" lengthAdjust="spacing" textLength="111" x="10" y="20.9951">OriginalObject</text></g><!--MD5=[6b893388f7530af1328855db1ad3f6c6]
cluster OriginalObject.Part1--><g id="cluster_OriginalObject.Part1"><path d="M149.5,49 L308.5,49 A3.75,3.75 0 0 1 311,51.5 L318,71.2969 L697.5,71.2969 A2.5,2.5 0 0 1 700,73.7969 L700,178.5 A2.5,2.5 0 0 1 697.5,181 L149.5,181 A2.5,2.5 0 0 1 147,178.5 L147,51.5 A2.5,2.5 0 0 1 149.5,49 " style="stroke:#000000;stroke-width:1.5;fill:none;"/><line style="stroke:#000000;stroke-width:1.5;fill:none;" x1="147" x2="318" y1="71.2969" y2="71.2969"/><text fill="#000000" font-family="sans-serif" font-size="14" font-weight="bold" lengthAdjust="spacing" textLength="158" x="151" y="63.9951">OriginalObject.Part1</text></g><!--MD5=[be80629dfbfc3d08284a7d877b102281]
cluster CopiedObject--><g id="cluster_CopiedObject"><path d="M67.5,229 L174.5,229 A3.75,3.75 0 0 1 177,231.5 L184,251.2969 L962.5,251.2969 A2.5,2.5 0 0 1 965,253.7969 L965,523.5 A2.5,2.5 0 0 1 962.5,526 L67.5,526 A2.5,2.5 0 0 1 65,523.5 L65,231.5 A2.5,2.5 0 0 1 67.5,229 " style="stroke:#000000;stroke-width:1.5;fill:none;"/><line style="stroke:#000000;stroke-width:1.5;fill:none;" x1="65" x2="184" y1="251.2969" y2="251.2969"/><text fill="#000000" font-family="sans-serif" font-size="14" font-weight="bold" lengthAdjust="spacing" textLength="106" x="69" y="243.9951">CopiedObject</text></g><!--MD5=[0c3c69ac2ecd7a1644ba0d3ae7e244aa]
cluster CopiedObject.Part1--><g id="cluster_CopiedObject.Part1"><path d="M91.5,370 L245.5,370 A3.75,3.75 0 0 1 248,372.5 L255,392.2969 L500.5,392.2969 A2.5,2.5 0 0 1 503,394.7969 L503,499.5 A2.5,2.5 0 0 1 500.5,502 L91.5,502 A2.5,2.5 0 0 1 89,499.5 L89,372.5 A2.5,2.5 0 0 1 91.5,370 " style="stroke:#000000;stroke-width:1.5;fill:none;"/><line style="stroke:#000000;stroke-width:1.5;fill:none;" x1="89" x2="255" y1="392.2969" y2="392.2969"/><text fill="#000000" font-family="sans-serif" font-size="14" font-weight="bold" lengthAdjust="spacing" textLength="153" x="93" y="384.9951">CopiedObject.Part1</text></g><!--MD5=[8518c5b925d45f30307c6ef2c2125181]
cluster CopiedObject.Part2--><g id="cluster_CopiedObject.Part2"><path d="M529.5,370 L683.5,370 A3.75,3.75 0 0 1 686,372.5 L693,392.2969 L938.5,392.2969 A2.5,2.5 0 0 1 941,394.7969 L941,499.5 A2.5,2.5 0 0 1 938.5,502 L529.5,502 A2.5,2.5 0 0 1 527,499.5 L527,372.5 A2.5,2.5 0 0 1 529.5,370 " style="stroke:#000000;stroke-width:1.5;fill:none;"/><line style="stroke:#000000;stroke-width:1.5;fill:none;" x1="527" x2="693" y1="392.2969" y2="392.2969"/><text fill="#000000" font-family="sans-serif" font-size="14" font-weight="bold" lengthAdjust="spacing" textLength="153" x="531" y="384.9951">CopiedObject.Part2</text></g><!--MD5=[9706d877fb763f7542ba3ca593f9154b]
class OriginalObject.Object1--><g id="elem_OriginalObject.Object1"><rect codeLine="2" fill="#F1F1F1" height="80.5938" id="OriginalObject.Object1" rx="2.5" ry="2.5" style="stroke:#181818;stroke-width:0.5;" width="105" x="22.5" y="84"/><ellipse cx="46.05" cy="100" fill="#ADD1B2" rx="11" ry="11" style="stroke:#181818;stroke-width:1.0;"/><path d="M49.0188,105.6406 Q48.4406,105.9375 47.8,106.0781 Q47.1594,106.2344 46.4563,106.2344 Q43.9563,106.2344 42.6281,104.5938 Q41.3156,102.9375 41.3156,99.8125 Q41.3156,96.6875 42.6281,95.0313 Q43.9563,93.375 46.4563,93.375 Q47.1594,93.375 47.8,93.5313 Q48.4563,93.6875 49.0188,93.9844 L49.0188,96.7031 Q48.3938,96.125 47.8,95.8594 Q47.2063,95.5781 46.5813,95.5781 Q45.2375,95.5781 44.55,96.6563 Q43.8625,97.7188 43.8625,99.8125 Q43.8625,101.9063 44.55,102.9844 Q45.2375,104.0469 46.5813,104.0469 Q47.2063,104.0469 47.8,103.7813 Q48.3938,103.5 49.0188,102.9219 L49.0188,105.6406 Z " fill="#000000"/><text fill="#000000" font-family="sans-serif" font-size="14" lengthAdjust="spacing" textLength="54" x="61.95" y="104.8467">Object1</text><line style="stroke:#181818;stroke-width:0.5;" x1="23.5" x2="126.5" y1="116" y2="116"/><text fill="#000000" font-family="sans-serif" font-size="14" lengthAdjust="spacing" textLength="24" x="28.5" y="132.9951">key</text><text fill="#000000" font-family="sans-serif" font-size="14" lengthAdjust="spacing" textLength="93" x="28.5" y="149.292">size: 256 MiB</text><line style="stroke:#181818;stroke-width:0.5;" x1="23.5" x2="126.5" y1="156.5938" y2="156.5938"/></g><!--MD5=[87a1c3ff919e02ddc2bf280c1562ca18]
class OriginalObject.Part1.Segment1--><g id="elem_OriginalObject.Part1.Segment1"><rect codeLine="8" fill="#F1F1F1" height="80.5938" id="OriginalObject.Part1.Segment1" rx="2.5" ry="2.5" style="stroke:#181818;stroke-width:0.5;" width="104" x="302" y="84"/><ellipse cx="317" cy="100" fill="#ADD1B2" rx="11" ry="11" style="stroke:#181818;stroke-width:1.0;"/><path d="M319.9688,105.6406 Q319.3906,105.9375 318.75,106.0781 Q318.1094,106.2344 317.4063,106.2344 Q314.9063,106.2344 313.5781,104.5938 Q312.2656,102.9375 312.2656,99.8125 Q312.2656,96.6875 313.5781,95.0313 Q314.9063,93.375 317.4063,93.375 Q318.1094,93.375 318.75,93.5313 Q319.4063,93.6875 319.9688,93.9844 L319.9688,96.7031 Q319.3438,96.125 318.75,95.8594 Q318.1563,95.5781 317.5313,95.5781 Q316.1875,95.5781 315.5,96.6563 Q314.8125,97.7188 314.8125,99.8125 Q314.8125,101.9063 315.5,102.9844 Q316.1875,104.0469 317.5313,104.0469 Q318.1563,104.0469 318.75,103.7813 Q319.3438,103.5 319.9688,102.9219 L319.9688,105.6406 Z " fill="#000000"/><text fill="#000000" font-family="sans-serif" font-size="14" lengthAdjust="spacing" textLength="72" x="331" y="104.8467">Segment1</text><line style="stroke:#181818;stroke-width:0.5;" x1="303" x2="405" y1="116" y2="116"/><text fill="#000000" font-family="sans-serif" font-size="14" lengthAdjust="spacing" textLength="84" x="308" y="132.9951">size: 64 MiB</text><text fill="#000000" font-family="sans-serif" font-size="14" lengthAdjust="spacing" textLength="73" x="308" y="149.292">pieces: 56</text><line style="stroke:#181818;stroke-width:0.5;" x1="303" x2="405" y1="156.5938" y2="156.5938"/></g><!--MD5=[0998faca596be49207e47182f32f803a]
class OriginalObject.Part1.Segment2--><g id="elem_OriginalObject.Part1.Segment2"><rect codeLine="12" fill="#F1F1F1" height="80.5938" id="OriginalObject.Part1.Segment2" rx="2.5" ry="2.5" style="stroke:#181818;stroke-width:0.5;" width="104" x="441" y="84"/><ellipse cx="456" cy="100" fill="#ADD1B2" rx="11" ry="11" style="stroke:#181818;stroke-width:1.0;"/><path d="M458.9688,105.6406 Q458.3906,105.9375 457.75,106.0781 Q457.1094,106.2344 456.4063,106.2344 Q453.9063,106.2344 452.5781,104.5938 Q451.2656,102.9375 451.2656,99.8125 Q451.2656,96.6875 452.5781,95.0313 Q453.9063,93.375 456.4063,93.375 Q457.1094,93.375 457.75,93.5313 Q458.4063,93.6875 458.9688,93.9844 L458.9688,96.7031 Q458.3438,96.125 457.75,95.8594 Q457.1563,95.5781 456.5313,95.5781 Q455.1875,95.5781 454.5,96.6563 Q453.8125,97.7188 453.8125,99.8125 Q453.8125,101.9063 454.5,102.9844 Q455.1875,104.0469 456.5313,104.0469 Q457.1563,104.0469 457.75,103.7813 Q458.3438,103.5 458.9688,102.9219 L458.9688,105.6406 Z " fill="#000000"/><text fill="#000000" font-family="sans-serif" font-size="14" lengthAdjust="spacing" textLength="72" x="470" y="104.8467">Segment2</text><line style="stroke:#181818;stroke-width:0.5;" x1="442" x2="544" y1="116" y2="116"/><text fill="#000000" font-family="sans-serif" font-size="14" lengthAdjust="spacing" textLength="84" x="447" y="132.9951">size: 64 MiB</text><text fill="#000000" font-family="sans-serif" font-size="14" lengthAdjust="spacing" textLength="73" x="447" y="149.292">pieces: 56</text><line style="stroke:#181818;stroke-width:0.5;" x1="442" x2="544" y1="156.5938" y2="156.5938"/></g><!--MD5=[801da0f07546c5cc833fe345d2f347f0]
class OriginalObject.Part1.Segment3--><g id="elem_OriginalObject.Part1.Segment3"><rect codeLine="16" fill="#F1F1F1" height="80.5938" id="OriginalObject.Part1.Segment3" rx="2.5" ry="2.5" style="stroke:#181818;stroke-width:0.5;" width="104" x="163" y="84"/><ellipse cx="178" cy="100" fill="#ADD1B2" rx="11" ry="11" style="stroke:#181818;stroke-width:1.0;"/><path d="M180.9688,105.6406 Q180.3906,105.9375 179.75,106.0781 Q179.1094,106.2344 178.4063,106.2344 Q175.9063,106.2344 174.5781,104.5938 Q173.2656,102.9375 173.2656,99.8125 Q173.2656,96.6875 174.5781,95.0313 Q175.9063,93.375 178.4063,93.375 Q179.1094,93.375 179.75,93.5313 Q180.4063,93.6875 180.9688,93.9844 L180.9688,96.7031 Q180.3438,96.125 179.75,95.8594 Q179.1563,95.5781 178.5313,95.5781 Q177.1875,95.5781 176.5,96.6563 Q175.8125,97.7188 175.8125,99.8125 Q175.8125,101.9063 176.5,102.9844 Q177.1875,104.0469 178.5313,104.0469 Q179.1563,104.0469 179.75,103.7813 Q180.3438,103.5 180.9688,102.9219 L180.9688,105.6406 Z " fill="#000000"/><text fill="#000000" font-family="sans-serif" font-size="14" lengthAdjust="spacing" textLength="72" x="192" y="104.8467">Segment3</text><line style="stroke:#181818;stroke-width:0.5;" x1="164" x2="266" y1="116" y2="116"/><text fill="#000000" font-family="sans-serif" font-size="14" lengthAdjust="spacing" textLength="84" x="169" y="132.9951">size: 64 MiB</text><text fill="#000000" font-family="sans-serif" font-size="14" lengthAdjust="spacing" textLength="73" x="169" y="149.292">pieces: 56</text><line style="stroke:#181818;stroke-width:0.5;" x1="164" x2="266" y1="156.5938" y2="156.5938"/></g><!--MD5=[6baba089f6d9cd8106f7071359fc2bb5]
class OriginalObject.Part1.Segment4--><g id="elem_OriginalObject.Part1.Segment4"><rect codeLine="20" fill="#F1F1F1" height="80.5938" id="OriginalObject.Part1.Segment4" rx="2.5" ry="2.5" style="stroke:#181818;stroke-width:0.5;" width="104" x="580" y="84"/><ellipse cx="595" cy="100" fill="#ADD1B2" rx="11" ry="11" style="stroke:#181818;stroke-width:1.0;"/><path d="M597.9688,105.6406 Q597.3906,105.9375 596.75,106.0781 Q596.1094,106.2344 595.4063,106.2344 Q592.9063,106.2344 591.5781,104.5938 Q590.2656,102.9375 590.2656,99.8125 Q590.2656,96.6875 591.5781,95.0313 Q592.9063,93.375 595.4063,93.375 Q596.1094,93.375 596.75,93.5313 Q597.4063,93.6875 597.9688,93.9844 L597.9688,96.7031 Q597.3438,96.125 596.75,95.8594 Q596.1563,95.5781 595.5313,95.5781 Q594.1875,95.5781 593.5,96.6563 Q592.8125,97.7188 592.8125,99.8125 Q592.8125,101.9063 593.5,102.9844 Q594.1875,104.0469 595.5313,104.0469 Q596.1563,104.0469 596.75,103.7813 Q597.3438,103.5 597.9688,102.9219 L597.9688,105.6406 Z " fill="#000000"/><text fill="#000000" font-family="sans-serif" font-size="14" lengthAdjust="spacing" textLength="72" x="609" y="104.8467">Segment4</text><line style="stroke:#181818;stroke-width:0.5;" x1="581" x2="683" y1="116" y2="116"/><text fill="#000000" font-family="sans-serif" font-size="14" lengthAdjust="spacing" textLength="84" x="586" y="132.9951">size: 64 MiB</text><text fill="#000000" font-family="sans-serif" font-size="14" lengthAdjust="spacing" textLength="73" x="586" y="149.292">pieces: 56</text><line style="stroke:#181818;stroke-width:0.5;" x1="581" x2="683" y1="156.5938" y2="156.5938"/></g><!--MD5=[a6af385bf8b41af682f4f0f307ce103c]
class CopiedObject.Object2--><g id="elem_CopiedObject.Object2"><rect codeLine="28" fill="#F1F1F1" height="80.5938" id="CopiedObject.Object2" rx="2.5" ry="2.5" style="stroke:#181818;stroke-width:0.5;" width="100" x="213" y="264"/><ellipse cx="234.3" cy="280" fill="#ADD1B2" rx="11" ry="11" style="stroke:#181818;stroke-width:1.0;"/><path d="M237.2688,285.6406 Q236.6906,285.9375 236.05,286.0781 Q235.4094,286.2344 234.7063,286.2344 Q232.2063,286.2344 230.8781,284.5938 Q229.5656,282.9375 229.5656,279.8125 Q229.5656,276.6875 230.8781,275.0313 Q232.2063,273.375 234.7063,273.375 Q235.4094,273.375 236.05,273.5313 Q236.7063,273.6875 237.2688,273.9844 L237.2688,276.7031 Q236.6438,276.125 236.05,275.8594 Q235.4563,275.5781 234.8313,275.5781 Q233.4875,275.5781 232.8,276.6563 Q232.1125,277.7188 232.1125,279.8125 Q232.1125,281.9063 232.8,282.9844 Q233.4875,284.0469 234.8313,284.0469 Q235.4563,284.0469 236.05,283.7813 Q236.6438,283.5 237.2688,282.9219 L237.2688,285.6406 Z " fill="#000000"/><text fill="#000000" font-family="sans-serif" font-size="14" lengthAdjust="spacing" textLength="54" x="249.7" y="284.8467">Object2</text><line style="stroke:#181818;stroke-width:0.5;" x1="214" x2="312" y1="296" y2="296"/><text fill="#000000" font-family="sans-serif" font-size="14" lengthAdjust="spacing" textLength="24" x="219" y="312.9951">key</text><text fill="#000000" font-family="sans-serif" font-size="14" lengthAdjust="spacing" textLength="88" x="219" y="329.292">size 256 MiB</text><line style="stroke:#181818;stroke-width:0.5;" x1="214" x2="312" y1="336.5938" y2="336.5938"/></g><!--MD5=[d7a6b36c76b5780409885da457a8629e]
class CopiedObject.SegmentCopies--><g id="elem_CopiedObject.SegmentCopies"><rect codeLine="33" fill="#F1F1F1" height="80.5938" id="CopiedObject.SegmentCopies" rx="2.5" ry="2.5" style="stroke:#181818;stroke-width:0.5;" width="143" x="421.5" y="264"/><ellipse cx="436.5" cy="280" fill="#ADD1B2" rx="11" ry="11" style="stroke:#181818;stroke-width:1.0;"/><path d="M439.4688,285.6406 Q438.8906,285.9375 438.25,286.0781 Q437.6094,286.2344 436.9063,286.2344 Q434.4063,286.2344 433.0781,284.5938 Q431.7656,282.9375 431.7656,279.8125 Q431.7656,276.6875 433.0781,275.0313 Q434.4063,273.375 436.9063,273.375 Q437.6094,273.375 438.25,273.5313 Q438.9063,273.6875 439.4688,273.9844 L439.4688,276.7031 Q438.8438,276.125 438.25,275.8594 Q437.6563,275.5781 437.0313,275.5781 Q435.6875,275.5781 435,276.6563 Q434.3125,277.7188 434.3125,279.8125 Q434.3125,281.9063 435,282.9844 Q435.6875,284.0469 437.0313,284.0469 Q437.6563,284.0469 438.25,283.7813 Q438.8438,283.5 439.4688,282.9219 L439.4688,285.6406 Z " fill="#000000"/><text fill="#000000" font-family="sans-serif" font-size="14" lengthAdjust="spacing" textLength="111" x="450.5" y="284.8467">SegmentCopies</text><line style="stroke:#181818;stroke-width:0.5;" x1="422.5" x2="563.5" y1="296" y2="296"/><text fill="#000000" font-family="sans-serif" font-size="14" lengthAdjust="spacing" textLength="62" x="427.5" y="312.9951">streamID</text><text fill="#000000" font-family="sans-serif" font-size="14" lengthAdjust="spacing" textLength="124" x="427.5" y="329.292">ancestorStreamID</text><line style="stroke:#181818;stroke-width:0.5;" x1="422.5" x2="563.5" y1="336.5938" y2="336.5938"/></g><!--MD5=[c33b6bcb14f5af229d874966d462fdf1]
class CopiedObject.Part1.Segment1--><g id="elem_CopiedObject.Part1.Segment1"><rect codeLine="39" fill="#F1F1F1" height="80.5938" id="CopiedObject.Part1.Segment1" rx="2.5" ry="2.5" style="stroke:#181818;stroke-width:0.5;" width="104" x="383" y="405"/><ellipse cx="398" cy="421" fill="#ADD1B2" rx="11" ry="11" style="stroke:#181818;stroke-width:1.0;"/><path d="M400.9688,426.6406 Q400.3906,426.9375 399.75,427.0781 Q399.1094,427.2344 398.4063,427.2344 Q395.9063,427.2344 394.5781,425.5938 Q393.2656,423.9375 393.2656,420.8125 Q393.2656,417.6875 394.5781,416.0313 Q395.9063,414.375 398.4063,414.375 Q399.1094,414.375 399.75,414.5313 Q400.4063,414.6875 400.9688,414.9844 L400.9688,417.7031 Q400.3438,417.125 399.75,416.8594 Q399.1563,416.5781 398.5313,416.5781 Q397.1875,416.5781 396.5,417.6563 Q395.8125,418.7188 395.8125,420.8125 Q395.8125,422.9063 396.5,423.9844 Q397.1875,425.0469 398.5313,425.0469 Q399.1563,425.0469 399.75,424.7813 Q400.3438,424.5 400.9688,423.9219 L400.9688,426.6406 Z " fill="#000000"/><text fill="#000000" font-family="sans-serif" font-size="14" lengthAdjust="spacing" textLength="72" x="412" y="425.8467">Segment1</text><line style="stroke:#181818;stroke-width:0.5;" x1="384" x2="486" y1="437" y2="437"/><text fill="#000000" font-family="sans-serif" font-size="14" lengthAdjust="spacing" textLength="84" x="389" y="453.9951">size: 64 MiB</text><text fill="#000000" font-family="sans-serif" font-size="14" lengthAdjust="spacing" textLength="64" x="389" y="470.292">pieces: 0</text><line style="stroke:#181818;stroke-width:0.5;" x1="384" x2="486" y1="477.5938" y2="477.5938"/></g><!--MD5=[e27c7bf1fb80cc0b24097d9c0e3839eb]
class CopiedObject.Part1.Segment2--><g id="elem_CopiedObject.Part1.Segment2"><rect codeLine="43" fill="#F1F1F1" height="80.5938" id="CopiedObject.Part1.Segment2" rx="2.5" ry="2.5" style="stroke:#181818;stroke-width:0.5;" width="104" x="244" y="405"/><ellipse cx="259" cy="421" fill="#ADD1B2" rx="11" ry="11" style="stroke:#181818;stroke-width:1.0;"/><path d="M261.9688,426.6406 Q261.3906,426.9375 260.75,427.0781 Q260.1094,427.2344 259.4063,427.2344 Q256.9063,427.2344 255.5781,425.5938 Q254.2656,423.9375 254.2656,420.8125 Q254.2656,417.6875 255.5781,416.0313 Q256.9063,414.375 259.4063,414.375 Q260.1094,414.375 260.75,414.5313 Q261.4063,414.6875 261.9688,414.9844 L261.9688,417.7031 Q261.3438,417.125 260.75,416.8594 Q260.1563,416.5781 259.5313,416.5781 Q258.1875,416.5781 257.5,417.6563 Q256.8125,418.7188 256.8125,420.8125 Q256.8125,422.9063 257.5,423.9844 Q258.1875,425.0469 259.5313,425.0469 Q260.1563,425.0469 260.75,424.7813 Q261.3438,424.5 261.9688,423.9219 L261.9688,426.6406 Z " fill="#000000"/><text fill="#000000" font-family="sans-serif" font-size="14" lengthAdjust="spacing" textLength="72" x="273" y="425.8467">Segment2</text><line style="stroke:#181818;stroke-width:0.5;" x1="245" x2="347" y1="437" y2="437"/><text fill="#000000" font-family="sans-serif" font-size="14" lengthAdjust="spacing" textLength="84" x="250" y="453.9951">size: 64 MiB</text><text fill="#000000" font-family="sans-serif" font-size="14" lengthAdjust="spacing" textLength="64" x="250" y="470.292">pieces: 0</text><line style="stroke:#181818;stroke-width:0.5;" x1="245" x2="347" y1="477.5938" y2="477.5938"/></g><!--MD5=[bce6e723cb8d5c8adbbe12938e94de9c]
class CopiedObject.Part1.Segment3--><g id="elem_CopiedObject.Part1.Segment3"><rect codeLine="47" fill="#F1F1F1" height="80.5938" id="CopiedObject.Part1.Segment3" rx="2.5" ry="2.5" style="stroke:#181818;stroke-width:0.5;" width="104" x="105" y="405"/><ellipse cx="120" cy="421" fill="#ADD1B2" rx="11" ry="11" style="stroke:#181818;stroke-width:1.0;"/><path d="M122.9688,426.6406 Q122.3906,426.9375 121.75,427.0781 Q121.1094,427.2344 120.4063,427.2344 Q117.9063,427.2344 116.5781,425.5938 Q115.2656,423.9375 115.2656,420.8125 Q115.2656,417.6875 116.5781,416.0313 Q117.9063,414.375 120.4063,414.375 Q121.1094,414.375 121.75,414.5313 Q122.4063,414.6875 122.9688,414.9844 L122.9688,417.7031 Q122.3438,417.125 121.75,416.8594 Q121.1563,416.5781 120.5313,416.5781 Q119.1875,416.5781 118.5,417.6563 Q117.8125,418.7188 117.8125,420.8125 Q117.8125,422.9063 118.5,423.9844 Q119.1875,425.0469 120.5313,425.0469 Q121.1563,425.0469 121.75,424.7813 Q122.3438,424.5 122.9688,423.9219 L122.9688,426.6406 Z " fill="#000000"/><text fill="#000000" font-family="sans-serif" font-size="14" lengthAdjust="spacing" textLength="72" x="134" y="425.8467">Segment3</text><line style="stroke:#181818;stroke-width:0.5;" x1="106" x2="208" y1="437" y2="437"/><text fill="#000000" font-family="sans-serif" font-size="14" lengthAdjust="spacing" textLength="84" x="111" y="453.9951">size: 32 MiB</text><text fill="#000000" font-family="sans-serif" font-size="14" lengthAdjust="spacing" textLength="73" x="111" y="470.292">pieces: 56</text><line style="stroke:#181818;stroke-width:0.5;" x1="106" x2="208" y1="477.5938" y2="477.5938"/></g><!--MD5=[d1f1e17e17278b6ff8b6f74b0f732aec]
class CopiedObject.Part2.Segment1--><g id="elem_CopiedObject.Part2.Segment1"><rect codeLine="53" fill="#F1F1F1" height="80.5938" id="CopiedObject.Part2.Segment1" rx="2.5" ry="2.5" style="stroke:#181818;stroke-width:0.5;" width="104" x="821" y="405"/><ellipse cx="836" cy="421" fill="#ADD1B2" rx="11" ry="11" style="stroke:#181818;stroke-width:1.0;"/><path d="M838.9688,426.6406 Q838.3906,426.9375 837.75,427.0781 Q837.1094,427.2344 836.4063,427.2344 Q833.9063,427.2344 832.5781,425.5938 Q831.2656,423.9375 831.2656,420.8125 Q831.2656,417.6875 832.5781,416.0313 Q833.9063,414.375 836.4063,414.375 Q837.1094,414.375 837.75,414.5313 Q838.4063,414.6875 838.9688,414.9844 L838.9688,417.7031 Q838.3438,417.125 837.75,416.8594 Q837.1563,416.5781 836.5313,416.5781 Q835.1875,416.5781 834.5,417.6563 Q833.8125,418.7188 833.8125,420.8125 Q833.8125,422.9063 834.5,423.9844 Q835.1875,425.0469 836.5313,425.0469 Q837.1563,425.0469 837.75,424.7813 Q838.3438,424.5 838.9688,423.9219 L838.9688,426.6406 Z " fill="#000000"/><text fill="#000000" font-family="sans-serif" font-size="14" lengthAdjust="spacing" textLength="72" x="850" y="425.8467">Segment1</text><line style="stroke:#181818;stroke-width:0.5;" x1="822" x2="924" y1="437" y2="437"/><text fill="#000000" font-family="sans-serif" font-size="14" lengthAdjust="spacing" textLength="84" x="827" y="453.9951">size: 32 MiB</text><text fill="#000000" font-family="sans-serif" font-size="14" lengthAdjust="spacing" textLength="73" x="827" y="470.292">pieces: 56</text><line style="stroke:#181818;stroke-width:0.5;" x1="822" x2="924" y1="477.5938" y2="477.5938"/></g><!--MD5=[1ad16dfd9668497f58b36d347279359b]
class CopiedObject.Part2.Segment2--><g id="elem_CopiedObject.Part2.Segment2"><rect codeLine="57" fill="#F1F1F1" height="80.5938" id="CopiedObject.Part2.Segment2" rx="2.5" ry="2.5" style="stroke:#181818;stroke-width:0.5;" width="104" x="682" y="405"/><ellipse cx="697" cy="421" fill="#ADD1B2" rx="11" ry="11" style="stroke:#181818;stroke-width:1.0;"/><path d="M699.9688,426.6406 Q699.3906,426.9375 698.75,427.0781 Q698.1094,427.2344 697.4063,427.2344 Q694.9063,427.2344 693.5781,425.5938 Q692.2656,423.9375 692.2656,420.8125 Q692.2656,417.6875 693.5781,416.0313 Q694.9063,414.375 697.4063,414.375 Q698.1094,414.375 698.75,414.5313 Q699.4063,414.6875 699.9688,414.9844 L699.9688,417.7031 Q699.3438,417.125 698.75,416.8594 Q698.1563,416.5781 697.5313,416.5781 Q696.1875,416.5781 695.5,417.6563 Q694.8125,418.7188 694.8125,420.8125 Q694.8125,422.9063 695.5,423.9844 Q696.1875,425.0469 697.5313,425.0469 Q698.1563,425.0469 698.75,424.7813 Q699.3438,424.5 699.9688,423.9219 L699.9688,426.6406 Z " fill="#000000"/><text fill="#000000" font-family="sans-serif" font-size="14" lengthAdjust="spacing" textLength="72" x="711" y="425.8467">Segment2</text><line style="stroke:#181818;stroke-width:0.5;" x1="683" x2="785" y1="437" y2="437"/><text fill="#000000" font-family="sans-serif" font-size="14" lengthAdjust="spacing" textLength="84" x="688" y="453.9951">size: 64 MiB</text><text fill="#000000" font-family="sans-serif" font-size="14" lengthAdjust="spacing" textLength="64" x="688" y="470.292">pieces: 0</text><line style="stroke:#181818;stroke-width:0.5;" x1="683" x2="785" y1="477.5938" y2="477.5938"/></g><!--MD5=[b34bf352fdecd31641c1a4e0062097fc]
class CopiedObject.Part2.Segment3--><g id="elem_CopiedObject.Part2.Segment3"><rect codeLine="61" fill="#F1F1F1" height="80.5938" id="CopiedObject.Part2.Segment3" rx="2.5" ry="2.5" style="stroke:#181818;stroke-width:0.5;" width="104" x="543" y="405"/><ellipse cx="558" cy="421" fill="#ADD1B2" rx="11" ry="11" style="stroke:#181818;stroke-width:1.0;"/><path d="M560.9688,426.6406 Q560.3906,426.9375 559.75,427.0781 Q559.1094,427.2344 558.4063,427.2344 Q555.9063,427.2344 554.5781,425.5938 Q553.2656,423.9375 553.2656,420.8125 Q553.2656,417.6875 554.5781,416.0313 Q555.9063,414.375 558.4063,414.375 Q559.1094,414.375 559.75,414.5313 Q560.4063,414.6875 560.9688,414.9844 L560.9688,417.7031 Q560.3438,417.125 559.75,416.8594 Q559.1563,416.5781 558.5313,416.5781 Q557.1875,416.5781 556.5,417.6563 Q555.8125,418.7188 555.8125,420.8125 Q555.8125,422.9063 556.5,423.9844 Q557.1875,425.0469 558.5313,425.0469 Q559.1563,425.0469 559.75,424.7813 Q560.3438,424.5 560.9688,423.9219 L560.9688,426.6406 Z " fill="#000000"/><text fill="#000000" font-family="sans-serif" font-size="14" lengthAdjust="spacing" textLength="72" x="572" y="425.8467">Segment3</text><line style="stroke:#181818;stroke-width:0.5;" x1="544" x2="646" y1="437" y2="437"/><text fill="#000000" font-family="sans-serif" font-size="14" lengthAdjust="spacing" textLength="84" x="549" y="453.9951">size: 64 MiB</text><text fill="#000000" font-family="sans-serif" font-size="14" lengthAdjust="spacing" textLength="64" x="549" y="470.292">pieces: 0</text><line style="stroke:#181818;stroke-width:0.5;" x1="544" x2="646" y1="477.5938" y2="477.5938"/></g><!--MD5=[a34561a182de10f615e262808e0be48d]
reverse link OriginalObject.Part1.Segment1 to CopiedObject.SegmentCopies--><g id="link_OriginalObject.Part1.Segment1_CopiedObject.SegmentCopies"><path codeLine="68" d="M388.13,169.21 C410.71,198.12 440.08,235.74 462,263.8 " fill="none" id="OriginalObject.Part1.Segment1-backto-CopiedObject.SegmentCopies" style="stroke:#181818;stroke-width:1.0;"/><polygon fill="#181818" points="384.85,165,387.2252,174.5581,387.9227,168.9445,393.5364,169.6419,384.85,165" style="stroke:#181818;stroke-width:1.0;"/></g><!--MD5=[af7aa4c96d8bbbf2771362b6b19dbd56]
reverse link OriginalObject.Part1.Segment2 to CopiedObject.SegmentCopies--><g id="link_OriginalObject.Part1.Segment2_CopiedObject.SegmentCopies"><path codeLine="69" d="M493,170.28 C493,199.05 493,236.08 493,263.8 " fill="none" id="OriginalObject.Part1.Segment2-backto-CopiedObject.SegmentCopies" style="stroke:#181818;stroke-width:1.0;"/><polygon fill="#181818" points="493,165,489,174,493,170,497,174,493,165" style="stroke:#181818;stroke-width:1.0;"/></g><!--MD5=[b51a039b5976902f9abfdfcc7ad6c653]
reverse link OriginalObject.Part1.Segment4 to CopiedObject.SegmentCopies--><g id="link_OriginalObject.Part1.Segment4_CopiedObject.SegmentCopies"><path codeLine="70" d="M597.87,169.21 C575.29,198.12 545.92,235.74 524,263.8 " fill="none" id="OriginalObject.Part1.Segment4-backto-CopiedObject.SegmentCopies" style="stroke:#181818;stroke-width:1.0;"/><polygon fill="#181818" points="601.15,165,592.4636,169.6419,598.0773,168.9445,598.7748,174.5581,601.15,165" style="stroke:#181818;stroke-width:1.0;"/></g><!--MD5=[8ad13e6549c85c1b07ea9bef6d9191b1]
reverse link CopiedObject.SegmentCopies to CopiedObject.Part1.Segment1--><g id="link_CopiedObject.SegmentCopies_CopiedObject.Part1.Segment1"><path codeLine="72" d="M474.35,350.2 C467.04,367.72 458.72,387.65 451.62,404.66 " fill="none" id="CopiedObject.SegmentCopies-backto-CopiedObject.Part1.Segment1" style="stroke:#181818;stroke-width:1.0;"/><polygon fill="#181818" points="476.38,345.33,469.2187,352.0914,474.4519,349.9433,476.6,355.1764,476.38,345.33" style="stroke:#181818;stroke-width:1.0;"/></g><!--MD5=[43deda786ef91e480b786b8310d43061]
reverse link CopiedObject.SegmentCopies to CopiedObject.Part1.Segment2--><g id="link_CopiedObject.SegmentCopies_CopiedObject.Part1.Segment2"><path codeLine="73" d="M416.44,332.91 C399.02,340.91 381.18,350.63 366,362 C350.21,373.82 335.6,389.83 323.86,404.59 " fill="none" id="CopiedObject.SegmentCopies-backto-CopiedObject.Part1.Segment2" style="stroke:#181818;stroke-width:1.0;"/><polygon fill="#181818" points="421.34,330.7,411.4913,330.7571,416.7828,332.7572,414.7828,338.0487,421.34,330.7" style="stroke:#181818;stroke-width:1.0;"/></g><!--MD5=[1aeec33c5e5f6b53fc50672ee0f8908b]
reverse link CopiedObject.SegmentCopies to CopiedObject.Part2.Segment2--><g id="link_CopiedObject.SegmentCopies_CopiedObject.Part2.Segment2"><path codeLine="74" d="M569.82,320.94 C601.15,329.64 636.6,342.75 665,362 C681.54,373.21 696.3,389.46 707.89,404.58 " fill="none" id="CopiedObject.SegmentCopies-backto-CopiedObject.Part2.Segment2" style="stroke:#181818;stroke-width:1.0;"/><polygon fill="#181818" points="564.83,319.58,572.4635,325.8033,569.6545,320.8932,574.5646,318.0841,564.83,319.58" style="stroke:#181818;stroke-width:1.0;"/></g><!--MD5=[5c4108a9251385fc481c1bf01e304bd1]
reverse link CopiedObject.SegmentCopies to CopiedObject.Part2.Segment3--><g id="link_CopiedObject.SegmentCopies_CopiedObject.Part2.Segment3"><path codeLine="75" d="M525.47,349.75 C538.41,367.38 553.18,387.5 565.77,404.66 " fill="none" id="CopiedObject.SegmentCopies-backto-CopiedObject.Part2.Segment3" style="stroke:#181818;stroke-width:1.0;"/><polygon fill="#181818" points="522.23,345.33,524.3311,354.9521,525.1887,349.3607,530.7801,350.2182,522.23,345.33" style="stroke:#181818;stroke-width:1.0;"/></g><!--MD5=[d3108773fcfafe29f4aeb84849122d3b]
@startuml
package OriginalObject {
    class OriginalObject.Object1 {
        key
        size: 256 MiB
    }
    
    package OriginalObject.Part1 {
        class OriginalObject.Part1.Segment1 {
            size: 64 MiB
            pieces: 56
        }
        class OriginalObject.Part1.Segment2 {
            size: 64 MiB
            pieces: 56
        }
        class OriginalObject.Part1.Segment3 {
            size: 64 MiB
            pieces: 56
        }
        class OriginalObject.Part1.Segment4 {
            size: 64 MiB
            pieces: 56
        }
    }
}

package CopiedObject {
    class CopiedObject.Object2 {
        key
        size 256 MiB
    }

    class CopiedObject.SegmentCopies {
        streamID
        ancestorStreamID
    }

    package CopiedObject.Part1 {
        class CopiedObject.Part1.Segment1 {
            size: 64 MiB
            pieces: 0
        }
        class CopiedObject.Part1.Segment2 {
            size: 64 MiB
            pieces: 0
        }
        class CopiedObject.Part1.Segment3 {
            size: 32 MiB
            pieces: 56
        }
    }
    package CopiedObject.Part2 {
        class CopiedObject.Part2.Segment1 {
            size: 32 MiB
            pieces: 56
        }
        class CopiedObject.Part2.Segment2 {
            size: 64 MiB
            pieces: 0
        }
        class CopiedObject.Part2.Segment3 {
            size: 64 MiB
            pieces: 0
        }
    }
}

CopiedObject.SegmentCopies -u-> OriginalObject.Part1.Segment1
CopiedObject.SegmentCopies -u-> OriginalObject.Part1.Segment2
CopiedObject.SegmentCopies -u-> OriginalObject.Part1.Segment4

CopiedObject.Part1.Segment1 -u-> CopiedObject.SegmentCopies
CopiedObject.Part1.Segment2 -u-> CopiedObject.SegmentCopies
CopiedObject.Part2.Segment2 -u-> CopiedObject.SegmentCopies
CopiedObject.Part2.Segment3 -u-> CopiedObject.SegmentCopies

@enduml

PlantUML version 1.2022.4(Sat Apr 09 15:29:17 CEST 2022)
(GPL source distribution)
Java Runtime: OpenJDK Runtime Environment
JVM: OpenJDK 64-Bit Server VM
Default Encoding: UTF-8
Language: en
Country: IE
--></g></svg>